# xmcd
#
# Track frame offsets:
#	150
#	22657
#	38287
#	66269
#	79866
#	99441
#	123553
#	140758
#	159185
#	181857
#	203839
#	215884
#
# Disc length: 3229 seconds
#
# Revision: 0
# Processed by: cddbd v1.5.1PL0 Copyright (c) Steve Scherf et al.
# Submitted via: EasyCDDAExtractor 7.1.3.1
#
DISCID=9b0c9b0c
DTITLE=Dio - Jones Beach Wantagh 26-07-03
DYEAR=2003
DGENRE=Hard Rock
TTITLE0=Killing The Dragon
TTITLE1=The Last In Line
TTITLE2=Stargazer
TTITLE3=Stand Up And Shout
TTITLE4=Drum Solo
TTITLE5=Rock And Roll
TTITLE6=I Speed At Night
TTITLE7=Dream Evil
TTITLE8=Guitar Solo
TTITLE9=Rainbow In The Dark
TTITLE10=Holy Diver
TTITLE11=Heaven And Hell
EXTD=
EXTT0=
EXTT1=
EXTT2=
EXTT3=
EXTT4=
EXTT5=
EXTT6=
EXTT7=
EXTT8=
EXTT9=
EXTT10=
EXTT11=
PLAYORDER=
